<svg version="1.2" xmlns="http://www.w3.org/2000/svg" viewBox="0 0 800 800" width="800" height="800"><style>.a{fill:#212529}.b{fill:#111315}.c{fill:#dd051d}.d{fill:#a60416}.e{fill:#824a02}.f{fill:#a77044}</style><path fill-rule="evenodd" class="a" d="m103.3 37.5l220.9 382.7 151.6-87.4-170.6-295.3h-201.9z"/><path class="b" d="m475.8 332.8l-90.2-156.3-46.5 80.5q-11.6 2.7-23 6.4-11.4 3.7-22.4 8.5-11 4.7-21.5 10.3-10.6 5.7-20.6 12.3l72.5 125z"/><path fill-rule="evenodd" class="c" d="m432.5 357.8l-65 37.4-206.6-357.7h86.6l185 320.3z"/><path fill-rule="evenodd" class="a" d="m494.8 37.5l-170.6 295.3 151.5 87.4 221-382.7h-202z"/><path class="d" d="m432.5 357.8l-75.7-131.3-17.8 30.8q-5.5 1.2-11 2.7-5.5 1.5-10.9 3.2-5.4 1.7-10.8 3.7-5.3 1.9-10.5 4.1l71.7 124.3z"/><path class="b" d="m548.3 294.8c-13-8.6-26.6-16.1-40.8-22.3-14.2-6.2-29-11.2-44-14.8-15.1-3.7-30.5-6-45.9-7.1-15.5-1-31.1-0.6-46.5 1l-46.8 81.1 151.4 87.5z"/><path fill-rule="evenodd" class="c" d="m639.1 37.5l-206.6 357.8-65-37.6 185-320.2h86.6z"/><path class="d" d="m432.5 395.3l71.8-124.3q-9-3.8-18.2-6.9-9.2-3.1-18.6-5.5-9.5-2.4-19-4.2-9.6-1.7-19.2-2.8l-61.8 106.1z"/><path fill-rule="evenodd" class="e" d="m400 762.5c-134.8 0-243.8-109-243.8-243.8 0.1-134.7 109-243.7 243.8-243.7 134.8 0 243.8 109 243.8 243.8-0.1 134.7-109 243.7-243.8 243.7z"/><path fill-rule="evenodd" class="f" d="m400 700c-100.2 0-181.3-81-181.3-181.3 0.1-100.2 81.1-181.2 181.3-181.2 100.2 0 181.3 81 181.3 181.3-0.1 100.2-81.1 181.2-181.3 181.2z"/><path  d="m456.8 518.8c3.4-2.6 6.5-5.5 9.3-8.7 2.8-3.3 5.2-6.8 7.2-10.6 2-3.8 3.5-7.7 4.6-11.9 1.1-4.1 1.7-8.3 1.9-12.6 0-34.5-35.8-62.5-79.8-62.5-44 0-79.6 28-79.6 62.5h49c0.8-5.7 3.5-10.9 7.6-14.8 4.2-3.9 9.6-6.3 15.3-6.7 5.7-0.4 11.4 1.1 16.1 4.4 4.7 3.2 8.1 8 9.7 13.5 2.1 15.4-9.6 34.1-25 34.1v26.5c27.8 0 35.5 43.7 9 54-3.7 1.2-7.7 1.5-11.6 0.9-3.8-0.6-7.5-2.1-10.7-4.4-3.2-2.2-5.8-5.3-7.6-8.7-1.8-3.5-2.8-7.4-2.8-11.3h-49c0 34.5 35.6 62.5 79.6 62.5 44 0 79.8-28 79.8-62.5-0.2-4.3-0.8-8.5-1.9-12.6-1.1-4.2-2.6-8.1-4.6-11.9-2-3.8-4.4-7.3-7.2-10.6-2.8-3.2-5.9-6.1-9.4-8.6z"/></svg>