<svg version="1.2" xmlns="http://www.w3.org/2000/svg" viewBox="0 0 800 800" width="800" height="800"><style>.a{fill:#212529}.b{fill:#111315}.c{fill:#dd051d}.d{fill:#a60416}.e{fill:#a7a7ad}.f{fill:#d7d7d7}</style><path fill-rule="evenodd" class="a" d="m103.3 37.5l220.9 382.7 151.6-87.4-170.6-295.3z"/><path class="b" d="m475.8 332.8l-90.2-156.3-46.5 80.5q-11.6 2.7-23 6.4-11.4 3.7-22.4 8.5-11 4.7-21.5 10.3-10.6 5.7-20.6 12.3l72.5 125z"/><path fill-rule="evenodd" class="c" d="m432.5 357.8l-65 37.4-206.6-357.7h86.6z"/><path fill-rule="evenodd" class="a" d="m494.8 37.5l-170.6 295.3 151.5 87.4 221-382.7h-202z"/><path class="d" d="m432.5 357.8l-75.7-131.3-17.8 30.8q-5.5 1.2-11 2.7-5.5 1.5-10.9 3.2-5.4 1.7-10.8 3.7-5.3 1.9-10.5 4.1l71.7 124.3z"/><path class="b" d="m548.3 294.8c-13-8.6-26.6-16.1-40.8-22.3-14.2-6.2-29-11.2-44-14.8-15.1-3.7-30.5-6-45.9-7.1-15.5-1-31.1-0.6-46.5 1l-46.8 81.1 151.4 87.5z"/><path fill-rule="evenodd" class="c" d="m639.1 37.5l-206.6 357.8-65-37.6 185-320.2z"/><path class="d" d="m432.5 395.3l71.8-124.3q-9-3.8-18.2-6.9-9.2-3.1-18.6-5.5-9.5-2.4-19-4.2-9.6-1.7-19.2-2.8l-61.8 106.1z"/><path fill-rule="evenodd" class="e" d="m400 762.5c-134.8 0-243.8-109-243.8-243.8 0.1-134.7 109-243.7 243.8-243.7 134.8 0 243.8 109 243.8 243.8-0.1 134.7-109 243.7-243.8 243.7z"/><path fill-rule="evenodd" class="f" d="m400 700c-100.2 0-181.3-81-181.3-181.3 0.1-100.2 81.1-181.2 181.3-181.2 100.2 0 181.3 81 181.3 181.3-0.1 100.2-81.1 181.2-181.3 181.2z"/><path  d="m424.5 421.6c-6.2-1.7-12.6-2.6-19-2.8-6.5-0.2-12.9 0.4-19.2 1.7-6.3 1.4-12.4 3.4-18.2 6.2-5.8 2.8-11.2 6.2-16.2 10.3-4.4 3.8-8.3 8-11.8 12.7-3.4 4.6-6.4 9.6-8.7 14.8-2.4 5.3-4.2 10.8-5.4 16.4-1.2 5.7-1.8 11.5-1.8 17.2h51.8c0-28 42.1-29.7 50-12.5 12.5 26.3-100 87.5-100 87.5v50h150v-50h-50c8.7-4 16.6-9.4 23.6-16 6.9-6.6 12.7-14.3 17.2-22.7 4.5-8.5 7.6-17.6 9.2-27 1.5-9.5 1.5-19.1 0-28.5-1.4-6.6-3.6-13-6.7-19-3.1-6-6.9-11.5-11.4-16.6-4.5-5-9.6-9.3-15.3-13-5.6-3.7-11.7-6.6-18.1-8.7z"/></svg>