<svg version="1.2" xmlns="http://www.w3.org/2000/svg" viewBox="0 0 800 800" width="800" height="800"><style>.a{fill:#212529}.b{fill:#111315}.c{fill:#dd051d}.d{fill:#a60416}.e{fill:#f9a215}.f{fill:#fccd1d}</style><path fill-rule="evenodd" class="a" d="m103.3 37.5l220.9 382.8 151.6-87.6-170.6-295.2z"/><path class="b" d="m475.8 332.8l-90.2-156.3-46.5 80.5q-11.6 2.7-23 6.4-11.4 3.7-22.4 8.5-11 4.7-21.5 10.3-10.6 5.7-20.6 12.3l72.5 125z"/><path fill-rule="evenodd" class="c" d="m432.5 357.8l-65 37.4-206.6-357.7h86.6z"/><path fill-rule="evenodd" class="a" d="m494.8 37.5l-170.6 295.3 151.5 87.4 221-382.7z"/><path class="d" d="m432.5 357.8l-75.8-131.3-17.7 30.8q-5.5 1.2-11 2.7-5.5 1.5-10.9 3.2-5.4 1.7-10.8 3.7-5.3 1.9-10.5 4.1l71.7 124.3z"/><path class="b" d="m548.3 294.8c-13-8.6-26.6-16.1-40.8-22.3-14.2-6.2-29-11.2-44-14.8-15.1-3.7-30.5-6-45.9-7.1-15.5-1-31.1-0.6-46.5 1l-46.8 81.1 151.5 87.5z"/><path fill-rule="evenodd" class="c" d="m639.1 37.5l-206.6 357.8-65-37.6 185-320.2z"/><path class="d" d="m432.5 395.3l71.8-124.3q-9-3.8-18.2-6.9-9.2-3.1-18.7-5.5-9.4-2.5-18.9-4.2-9.6-1.7-19.3-2.8l-61.7 106.1z"/><path fill-rule="evenodd" class="e" d="m400 762.5c-134.8 0-243.8-109-243.8-243.8 0.1-134.7 109-243.7 243.8-243.7 134.8 0 243.8 109 243.8 243.8-0.1 134.7-109 243.7-243.8 243.7z"/><path fill-rule="evenodd" class="f" d="m400 700c-100.2 0-181.3-81-181.3-181.3 0.1-100.2 81.1-181.2 181.3-181.2 100.2 0 181.3 81 181.3 181.3-0.1 100.2-81.1 181.2-181.3 181.2z"/><path  d="m426.6 545.4v-132.9h-53.1c0 5.2-1 10.4-3 15.3-2 4.8-5 9.2-8.7 12.9-3.7 3.7-8.1 6.6-12.9 8.6-4.9 2-10 3.1-15.3 3.1h-13.2v53.1h53.1v39.9c0 3.5-0.7 6.9-2.1 10.1-1.3 3.2-3.3 6.2-5.7 8.6-2.5 2.5-5.4 4.4-8.7 5.8-3.2 1.3-6.6 2-10.1 2h-26.5v53.1h159.3v-53.1h-26.6c-3.5 0-6.9-0.7-10.1-2-3.2-1.4-6.2-3.3-8.6-5.8-2.5-2.4-4.4-5.4-5.8-8.6-1.3-3.2-2-6.6-2-10.1z"/></svg>